# xmcd CD database file
#
# Track frame offsets:
#	150
#	63132
#	93895
#	119812
#	182662
#
# Disc length: 3084 seconds
#
# Revision: 0
# Processed by: cddbd v1.5.1PL0 Copyright (c) Steve Scherf et al.
# Submitted via: CDex 1.51
#
DISCID=3c0c0a05
DTITLE=Quinteplus - En Vivo 1972
DYEAR=1972
DGENRE=Jazz
TTITLE0=El rapidón no se rinde
TTITLE1=Loberman, el hombre lobo
TTITLE2=Pochoclito
TTITLE3=Oda a Billy Joe
TTITLE4=José Blues
EXTD=YEAR: 1972
EXTT0=
EXTT1=
EXTT2=
EXTT3=
EXTT4=
PLAYORDER=
